<svg xmlns="http://www.w3.org/2000/svg" viewBox="0 0 290 320" preserveAspectRatio="xMidYMid meet">
  <!-- Red Heart Y Shape - Icon Only - Properly sized -->
  <g id="heart-y-icon">
    <!-- Outer heart shape -->
    <path fill="#FF3333" d="
      M 80 60
      C 80 30, 95 15, 115 15
      C 130 15, 140 22, 145 35
      C 150 22, 160 15, 175 15
      C 195 15, 210 30, 210 60
      L 210 190
      C 210 235, 195 275, 170 290
      C 155 300, 145 305, 145 305
      C 145 305, 135 300, 120 290
      C 95 275, 80 235, 80 190
      Z
    "/>
    
    <!-- Inner white Y cutout -->
    <path fill="#FFFFFF" d="
      M 115 80
      L 145 50
      L 175 80
      L 145 110
      Z
      M 125 120
      L 125 195
      C 125 210, 132 230, 145 243
      C 158 230, 165 210, 165 195
      L 165 120
      L 145 138
      Z
    "/>
  </g>
</svg>
