<?xml version="1.0" encoding="UTF-8"?>
<svg id="Layer_2" data-name="Layer 2" xmlns="http://www.w3.org/2000/svg" viewBox="0 0 189.26 49.26">
  <defs>
    <style>
      .cls-1 {
        fill: #0052ff;
      }

      .cls-2 {
        fill: #00d0ff;
      }

      .cls-3 {
        fill: #0098ff;
      }
    </style>
  </defs>
  <g id="Layer_1-2" data-name="Layer 1">
    <g>
      <path d="M54.28,35.09V15.97c0-2.69,1.29-4.4,4.51-4.4h12.37v4.72h-11.78v6.15h10.97v4.68h-10.97v7.97h-5.1Z"/>
      <path d="M79.89,9.82v25.26h-4.96V9.82h4.96Z"/>
      <path d="M83.87,26.28c0-5,3.63-9.12,8.98-9.12s8.67,4.05,8.67,8.77v1.47h-12.86c.35,2.31,2.13,3.84,4.61,3.84,1.89,0,3.46-.91,4.26-2.52l3.81,1.92c-1.5,3.11-4.37,4.89-8.04,4.89-5.38,0-9.43-3.74-9.43-9.26Zm12.72-1.64c-.21-1.78-1.68-3.14-3.77-3.14s-3.6,1.4-3.95,3.14h7.72Z"/>
      <path d="M103.69,35.09l4.05-6.57c.52-.84,.77-1.47,.77-2.06,0-.56-.21-1.12-.66-1.85l-4.16-6.81h5.59l2.94,4.86c.28,.45,.52,.98,.66,1.5h1.43c.14-.52,.38-1.05,.66-1.5l2.94-4.86h5.59l-4.16,6.81c-.45,.73-.66,1.29-.66,1.85,0,.59,.24,1.22,.77,2.06l4.05,6.57h-5.56l-2.97-4.79c-.31-.52-.59-1.12-.77-1.71h-1.22c-.18,.59-.45,1.19-.77,1.71l-2.97,4.79h-5.56Z"/>
      <path d="M126.4,38.58l4.09-2.24c.77,1.5,2.31,2.66,4.54,2.66,2.97,0,4.68-2.17,4.68-5.38v-.49c-.94,1.4-2.48,2.17-4.61,2.17-5.63,0-8.07-3.6-8.07-8.74v-8.77h4.89v8.6c0,2.52,1.36,4.23,3.81,4.23,2.24,0,3.91-1.85,3.91-4.33v-8.49h5.03v15.76c0,6.05-3.88,9.99-9.57,9.99-4.12,0-7.13-1.75-8.7-4.96Z"/>
      <path d="M150.37,35.09V11.57h8.28c6.67,0,10.76,3.11,10.76,8.56s-4.02,8.74-10.48,8.74h-3.46v6.18l-5.1,.03Zm5.1-18.8v7.86h3.32c3.35,0,5.38-1.29,5.38-4.02s-2.03-3.84-5.38-3.84h-3.32Z"/>
      <path d="M171.61,26.28c0-5,3.63-9.12,8.98-9.12s8.67,4.05,8.67,8.77v1.47h-12.86c.35,2.31,2.13,3.84,4.61,3.84,1.89,0,3.46-.91,4.26-2.52l3.81,1.92c-1.5,3.11-4.37,4.89-8.04,4.89-5.38,0-9.43-3.74-9.43-9.26Zm12.72-1.64c-.21-1.78-1.68-3.14-3.77-3.14s-3.6,1.4-3.95,3.14h7.72Z"/>
    </g>
    <g>
      <path class="cls-2" d="M31.98,41.05l-16.9,7.9c-1.77,.83-3.87-.05-4.53-1.89L.2,18.28c-.58-1.62,.16-3.41,1.72-4.13L18.82,6.25c1.77-.83,3.87,.05,4.53,1.89l10.35,28.78c.58,1.62-.16,3.41-1.72,4.13Z"/>
      <path class="cls-3" d="M34.89,28.52l-16.9,7.9c-1.77,.83-3.87-.05-4.53-1.89L6.55,15.31c-.58-1.62,.16-3.41,1.72-4.13L25.17,3.28c1.77-.83,3.87,.05,4.53,1.89l6.91,19.22c.58,1.62-.16,3.41-1.72,4.13Z"/>
      <path class="cls-1" d="M37.87,16.17l-16.9,7.9c-1.77,.83-3.87-.05-4.53-1.89l-3.54-9.84c-.58-1.62,.16-3.41,1.72-4.13L31.52,.31c1.77-.83,3.87,.05,4.53,1.89l3.54,9.84c.58,1.62-.16,3.41-1.72,4.13Z"/>
      <path class="cls-3" d="M1.92,14.15h0s.6-.21,.6-.21c1.73-.62,3.63,.28,4.25,2l.07,.19,2.66-1.52-1.23-3.42L1.92,14.15Z"/>
      <path class="cls-1" d="M8.27,11.18h0s.6-.21,.6-.21c1.73-.62,3.63,.28,4.25,2l.07,.19,2.66-1.52-1.23-3.42-6.35,2.97Z"/>
    </g>
  </g>
</svg>